<svg width="552" height="756" viewBox="0 0 552 756" fill="none" xmlns="http://www.w3.org/2000/svg">
<path d="M183.148 685.562L191.538 734.684L215.861 737.033L207.432 682.174L183.148 685.562Z" fill="#FCC9A7"/>
<path d="M188.203 731.296C188.703 729.564 190.512 728.91 191.821 729.949C194.322 732.028 198.825 734.53 205.252 733.645C211.948 732.759 214.334 728.679 215.219 725.83C215.681 724.328 217.105 723.52 218.375 724.097L263.903 743.192C266.443 744.347 268.444 746.618 269.483 749.467C270.484 752.162 268.752 755.126 266.212 755.165L191.628 755.627C188.857 755.627 186.625 753.009 186.779 749.814L187.433 734.261C187.433 733.991 187.472 733.76 187.549 733.491L188.203 731.296Z" fill="#1F252A"/>
<path d="M84.8236 459.543H74.8945V749.159H84.8236V459.543Z" fill="#2A272D"/>
<path d="M63.3193 399.987L134.439 530.648L179.428 712.163H220.261L191.128 510.436L63.3193 399.987Z" fill="#232322"/>
<path d="M122.002 455.27H33.1026C20.3641 455.27 10.0117 444.953 10.0117 432.172C10.0117 419.429 20.3257 409.073 33.1026 409.073H122.002C134.741 409.073 145.093 419.429 145.093 432.172C145.093 444.953 134.741 455.27 122.002 455.27Z" fill="#FFEEE3"/>
<path d="M122.538 455.27H37.1016V463.816H122.538V455.27Z" fill="#2A272D"/>
<path d="M122.538 678.863H37.1016V687.41H122.538V678.863Z" fill="#2A272D"/>
<path d="M75.2387 163.346C58.113 161.267 41.8728 171.623 35.3301 187.561C29.7883 200.996 25.1701 220.476 30.0962 243.074C45.1051 312.254 36.1383 360.106 36.1383 360.106H117.457L117.149 265.903C117.149 265.903 122.768 254.931 125.808 240.572C130.08 220.476 128.463 217.858 116.725 200.072L91.7491 169.582C91.7876 169.582 86.2069 164.655 75.2387 163.346Z" fill="#D91F26"/>
<path d="M223.149 230.099C228.575 219.243 241.737 214.854 252.59 220.282C263.443 225.711 267.83 238.877 262.403 249.733C256.977 260.589 243.815 264.978 232.963 259.55C222.11 254.16 217.723 240.956 223.149 230.099Z" fill="#FCC9A7"/>
<path d="M227.954 223.748L186.621 263.015L202.323 280.493L234.535 252.891L227.954 223.748Z" fill="#FCC9A7"/>
<path d="M47.3752 224.286L122.151 337.969C125.038 342.319 130.964 343.359 135.159 340.202L225.406 269.29L207.125 237.914L137.314 291.272L88.5155 200.995C82.0116 187.444 64.7319 183.325 52.8016 192.41C42.8725 199.956 40.5249 213.892 47.3752 224.286Z" fill="#D91F26"/>
<path d="M79.9377 180.553C75.204 180.515 70.1621 178.551 66.4291 176.626C62.7346 174.74 60.4259 170.852 60.4643 166.694L61.234 90.3154L94.6004 90.4694L93.8307 165.886C93.7922 174.548 87.5577 180.592 79.9377 180.553Z" fill="#FCC9A7"/>
<path d="M94.0519 144.713L80.2739 125.194C80.2739 125.194 71.8457 147.484 93.9745 154.337L94.0519 144.713Z" fill="#F2C09E"/>
<path d="M124.112 90.6234C123.996 113.375 105.485 131.7 82.7404 131.585C59.9959 131.469 41.6771 112.952 41.7925 90.2C41.908 67.448 60.4192 49.1233 83.1637 49.2388C105.87 49.3543 124.189 67.8715 124.112 90.6234Z" fill="#FCC9A7"/>
<path d="M96.9764 144.943C86.2006 144.904 77.4646 136.088 77.5415 125.309L77.657 97.1291L124.07 90.623L123.954 118.226C123.877 133.047 111.832 145.02 96.9764 144.943Z" fill="#FCC9A7"/>
<path d="M122.837 99.8242L131.766 113.106C133.036 115.262 131.381 117.918 128.725 117.918L118.296 119.843L122.837 99.8242Z" fill="#FCC9A7"/>
<path d="M77.7106 108.41L95.2209 107.794C95.2209 107.794 96.7218 92.5869 100.147 88.9297C103.572 85.2724 105.304 69.0269 105.304 69.0269C105.304 69.0269 97.0296 79.1517 94.6051 89.623L131.281 88.6987C131.281 88.6987 136.746 44.1959 81.2128 42.04C25.6405 39.8842 27.1798 92.4714 38.1095 102.904C46.8069 111.22 60.8924 131.624 60.8924 131.624C60.8924 131.624 60.2385 109.026 77.7106 108.41Z" fill="#4C1827"/>
<path d="M90.4046 103.019C90.6355 109.525 85.5555 114.953 79.0901 115.184C72.5861 115.415 67.1598 110.334 66.8904 103.866C66.6595 97.3601 71.7391 91.9323 78.2045 91.6628C84.7085 91.4319 90.1352 96.5131 90.4046 103.019Z" fill="#FCC9A7"/>
<path d="M56.4629 36.3421C58.2332 50.9327 47.8807 64.1758 33.3334 65.9851C18.7476 67.756 5.50881 57.4002 3.70001 42.8097C1.9297 28.2192 12.2821 14.9761 26.8678 13.2052C41.4538 11.3958 54.6926 21.7516 56.4629 36.3421Z" fill="#4C1827"/>
<path d="M61.7715 171.969C61.7715 171.969 64.9657 181.939 109.531 191.217L88.8263 163.037L61.7715 171.969Z" fill="#FCC9A7"/>
<path d="M79.8575 734.53L20.1289 754.972H139.509L79.8575 734.53Z" fill="#2A272D"/>
<path d="M84.3572 612.069L51.6836 651.375L75.1593 660.307L107.948 618.691L84.3572 612.069Z" fill="#FCC9A7"/>
<path d="M52.8054 646.024C53.9599 644.677 55.8842 644.754 56.6539 646.255C58.1163 649.181 61.1951 653.262 67.4681 655.033C73.9721 656.881 81.0918 651.183 83.016 648.912C84.0166 647.718 85.6715 647.526 86.5951 648.604L126.581 676.668C128.428 678.747 129.352 681.634 129.198 684.676C129.044 687.525 126.273 689.565 123.925 688.564L44.8005 668.545C42.2605 667.429 41.2599 664.118 42.6839 661.269L50.9196 648.411C51.0351 648.18 51.189 647.949 51.343 647.757L52.8054 646.024Z" fill="#1F252A"/>
<path d="M33.7966 360.105C33.7966 360.105 9.32021 415.848 96.296 445.53L156.409 501.389L63.3529 626.044L104.955 641.096L217.947 520.83C226.298 511.091 226.644 496.154 218.755 485.99L117.501 360.066H33.7966V360.105Z" fill="#383635"/>
<path d="M507.08 310.867H209.938V327.421H507.08V310.867Z" fill="#FFEEE3"/>
<path d="M283.029 755.049V327.421" stroke="#2A272D" stroke-width="2.2811" stroke-miterlimit="10"/>
<path d="M431.615 755.049V327.421" stroke="#2A272D" stroke-width="2.2811" stroke-miterlimit="10"/>
<path d="M396.509 301.859H272.896V309.867H396.509V301.859Z" fill="#2A272D"/>
<path d="M396.505 309.905L436.53 193.027L428.14 191.025L388.924 303.284L396.505 309.905Z" fill="#2A272D"/>
<path d="M116.425 329.268L56.7354 238.491" stroke="#EFC375" stroke-width="0.7847" stroke-miterlimit="10" stroke-linecap="round" stroke-linejoin="round"/>
<path d="M120.032 258.048L97.249 222.015" stroke="#EFC375" stroke-width="0.7847" stroke-miterlimit="10" stroke-linecap="round" stroke-linejoin="round"/>
</svg>
