<svg version="1.1" x="0px" y="0px" width="608" height="200" xmlns="http://www.w3.org/2000/svg" xmlns:xlink="http://www.w3.org/1999/xlink" xmlns:a="http://ns.adobe.com/AdobeSVGViewerExtensions/3.0/" xml:space="preserve"><g transform="translate(20.53976726532 20.43229675293) scale(1.8517241119848 1.8517241119848) rotate(0 43.599998474121 41.61449432373)"><path d="M78.238,63.354l-0.795,1.988l-1.871-0.482l-0.634,1.652l-1.771-0.6l-0.614,1.604l-1.771-0.6l-0.738,1.715
	l-1.619-0.645l-0.748,1.602l-1.65-0.633l-0.816,2.131l-1.725-0.689l-0.716,1.699l-1.54-0.615l-0.713,1.785l-1.604-0.639
	l-0.691,1.727l-1.762-0.42l-1.059,1.223l-2.975-6.693l-0.296-0.154L74.787,49.02c-0.611-0.215-1.27-0.336-1.953-0.336H50.578
	c-3.352,0-6.068,2.791-6.068,6.236v22.072c0,3.445,2.717,6.236,6.068,6.236h22.256c3.352,0,6.069-2.791,6.069-6.236V63.629
	L78.238,63.354z" fill="#d91f26"></path><path d="M36.143,48.684H13.888c-1.352,0-2.595,0.459-3.604,1.227l7.837,4.709c0.403,0.24,0.488,0.834,0.197,1.32
	l-0.631,1.051c0.06,0.021,0.116,0.047,0.172,0.08l2.419,1.525c0.35,0.223,0.49,0.666,0.329,1.049l-5.253,12.496l4.813,2.738
	l0.796-1.479l-2.313-1.266c-0.413-0.225-0.575-0.721-0.362-1.111l9.667-17.678c0.211-0.391,0.717-0.523,1.13-0.297l6.711,3.67
	c0.413,0.225,0.574,0.721,0.359,1.109l-9.663,17.68c-0.213,0.389-0.719,0.521-1.13,0.297l-2.907-1.588l-1.204,2.234
	c-0.108,0.199-0.294,0.35-0.514,0.412c-0.001,0.002-0.002,0.002-0.003,0.002c-0.218,0.061-0.454,0.031-0.649-0.078l-6.226-3.541
	c-0.375-0.213-0.53-0.67-0.365-1.068l5.268-12.527l-1.809-1.143c-0.045-0.027-0.085-0.059-0.125-0.094l-0.702,1.168
	c-0.292,0.488-0.855,0.688-1.259,0.445l-7.05-4.238v21.203c0,3.445,2.718,6.238,6.069,6.238h22.255c3.351,0,6.068-2.793,6.068-6.238
	V54.92C42.211,51.477,39.494,48.684,36.143,48.684" fill="#231f20"></path><path d="M59.353,33.854c-1.447-0.883-2.188-4.158,1.083-5.012c1.236-0.479,1.573-0.998,1.573-0.998l-4.419-3.117
	l-4.499,6.506c0,0-3.626-4.213-1.396-8.092c2.228-3.879,6.512-5.74,12.6-0.41c-1.166,1.875-1.53,2.619-1.53,2.619l0.814,0.35
	l1.732-2.367l4.783,3.006l-3.203,5.436l3.019,1.93l3.396-5.051l1.254,0.684c0,0-1.525,2.584-2.027,3.688
	c-0.538,1.186,0.22,2.477,2.214,3.84c0.444,0.305,2.117,1.373,4.475,2.875v-4.584c-0.777,0.867-1.846,1.619-3.004,1.195
	c-2.143-0.779-2.604-2.217-2.479-3.152s1.689-3.174,1.689-3.174l3.793,2.486v-5.668h7.979l-7.979-4.975l-13.262-8.271L44.155,0
	l0.673,0.738v39.563c0,3.445,2.717,6.238,6.069,6.238h22.255c1.357,0,2.608-0.465,3.619-1.238
	C71.848,42.063,60.66,34.654,59.353,33.854 M72.726,28.102l-2.844,4.516l-1.938-1.219l2.846-4.518L72.726,28.102z" fill="#231f20"></path><path d="M30.476,7.838v-4.92H19.396v11.828l-11.42,7.121L0,26.842h7.977v12.637
	c6.824-5.434,12.386-9.877,13.236-10.602c2.39-2.033,4.67-3.252,2.573-4.875c-2.097-1.621-6.083-1.994-8.438-2.236
	c-2.352-0.238-1.616-0.953-1.616-0.953c11.503-3.326,18.936,4.469,19.23,6.768c-0.235,2.941,1.745,3.881,2.697,4.166
	c0.634-0.209,1.337-0.051,1.769,0.459l0.951,1.115c0.586,0.691,0.459,1.76-0.283,2.391l-2.799,2.379
	c-0.744,0.633-1.82,0.584-2.405-0.104l-0.951-1.119c-0.434-0.51-0.474-1.223-0.168-1.816c-0.846-4.205-4.907-2.893-4.907-2.893
	s-1.179,0.822-3.299,2.445c-0.773,0.59-6.369,5.145-13.156,10.684c1.013,0.783,2.271,1.252,3.636,1.252h22.254
	c3.352,0,6.069-2.793,6.069-6.238V0.738L43.042,0L30.476,7.838z" fill="#d91f26"></path></g>
<g transform="translate(184.5397977829 173.54751795521)  scale(0.60675883256528 0.60675883256528)"><text dominant-baseline="auto" alignment-baseline="auto" font-family="Explora" font-size="34px" fill="#d91f26" letter-spacing="0" xml:space="preserve">SOLUTION DE RÉNOVATION ET DE NETTOYAGE</text></g>
<g transform="translate(179.96169757843 135.55308631159)  scale(0.95161290322581 0.95161290322581)"><text dominant-baseline="auto" alignment-baseline="auto" font-family="HAZMAT" font-size="62px" fill="#231f20" letter-spacing="0" xml:space="preserve">RENO &amp; NET</text></g>
</svg>